<svg xmlns="http://www.w3.org/2000/svg" version="1.1" xmlns:xlink="http://www.w3.org/1999/xlink" xmlns:svgjs="http://svgjs.dev/svgjs" width="1000" height="1000" viewBox="0 0 1000 1000"><rect width="1000" height="1000" fill="#000000"></rect><g transform="matrix(0.7,0,0,0.7,149.57575757575756,286.9834597896544)"><svg viewBox="0 0 396 241" data-background-color="#ffffff" preserveAspectRatio="xMidYMid meet" height="608" width="1000" xmlns="http://www.w3.org/2000/svg" xmlns:xlink="http://www.w3.org/1999/xlink"><g id="tight-bounds" transform="matrix(1,0,0,1,0.2400000000000091,0.12261792926059911)"><svg viewBox="0 0 395.52 240.7547641414788" height="240.7547641414788" width="395.52"><g><svg viewBox="0 0 395.52 240.7547641414788" height="240.7547641414788" width="395.52"><g transform="matrix(1,0,0,1,0,144.81084879082832)"><svg viewBox="0 0 395.52 95.94391535065049" height="95.94391535065049" width="395.52"><g><svg viewBox="0 0 395.52 95.94391535065049" height="95.94391535065049" width="395.52"><g><svg viewBox="0 0 395.52 51.74756339581036" height="51.74756339581036" width="395.52"><g transform="matrix(1,0,0,1,0,0)"><svg width="395.52" viewBox="1.45 -35.6 272.08 35.6" height="51.74756339581036" data-palette-color="#010c80"><path d="M25.45 0L20.05 0Q15.75-0.05 12.3-1.4 8.85-2.75 6.45-5.1 4.05-7.45 2.75-10.63 1.45-13.8 1.45-17.5L1.45-17.5Q1.45-21.2 2.75-24.38 4.05-27.55 6.48-29.9 8.9-32.25 12.33-33.6 15.75-34.95 20.05-35L20.05-35 25.45-35 25.45-28 20.25-28Q17.9-27.95 15.98-27.15 14.05-26.35 12.68-24.95 11.3-23.55 10.58-21.65 9.85-19.75 9.85-17.5L9.85-17.5Q9.85-15.25 10.58-13.35 11.3-11.45 12.68-10.05 14.05-8.65 15.98-7.85 17.9-7.05 20.25-7L20.25-7 25.45-7 25.45 0ZM38.6 0L30.2 0 30.2-35 38.6-35 38.6-21.25 52.25-21.25 52.25-35 60.65-35 60.65 0 52.25 0 52.25-14.25 38.6-14.25 38.6 0ZM72.45 0L63.7 0 75.05-30.95Q75.9-33.25 77.85-34.43 79.8-35.6 82.25-35.6L82.25-35.6Q84.7-35.6 86.65-34.48 88.6-33.35 89.45-31L89.45-31 100.84 0 91.8 0 89.6-6.75 74.75-6.75 72.45 0ZM81.65-27.65L76.9-13.7 87.45-13.7 83-27.65Q82.9-27.95 82.72-28.08 82.55-28.2 82.3-28.2L82.3-28.2Q82.05-28.2 81.87-28.05 81.7-27.9 81.65-27.65L81.65-27.65ZM120.04 0L116.89 0Q113.69 0 111.27-1.43 108.84-2.85 107.47-5.25 106.09-7.65 106.09-10.6L106.09-10.6 106.09-28 96.59-28 96.59-35 123.94-35 123.94-28 114.49-28 114.49-9.85Q114.49-8.7 115.29-7.85 116.09-7 117.29-7L117.29-7 120.04-7 120.04 0ZM148.89 0L145.74 0Q142.54 0 140.12-1.43 137.69-2.85 136.31-5.25 134.94-7.65 134.94-10.6L134.94-10.6 134.94-28 125.44-28 125.44-35 152.79-35 152.79-28 143.34-28 143.34-9.85Q143.34-8.7 144.14-7.85 144.94-7 146.14-7L146.14-7 148.89-7 148.89 0ZM175.34 0L166.99 0 166.99-9.55Q163.79-10.3 161.41-12.18 159.04-14.05 157.74-16.93 156.44-19.8 156.44-23.55L156.44-23.55 156.44-35 164.64-35 164.64-23.1Q164.64-21.2 165.44-19.63 166.24-18.05 167.71-17.13 169.19-16.2 171.19-16.2L171.19-16.2Q173.19-16.2 174.66-17.13 176.14-18.05 176.94-19.63 177.74-21.2 177.74-23.1L177.74-23.1 177.74-35 185.94-35 185.94-23.55Q185.94-19.8 184.64-16.93 183.34-14.05 180.94-12.15 178.54-10.25 175.34-9.55L175.34-9.55 175.34 0ZM199.84 0L191.44 0 191.44-24.65Q191.44-27.55 192.86-29.9 194.28-32.25 196.71-33.63 199.14-35 202.14-35L202.14-35 215.19-35 215.19-28 203.19-28Q201.78-28 200.81-27 199.84-26 199.84-24.55L199.84-24.55 199.84-19.5 213.49-19.5 213.49-12.55 199.84-12.55 199.84 0ZM222.43 0L213.68 0 225.03-30.95Q225.88-33.25 227.83-34.43 229.78-35.6 232.23-35.6L232.23-35.6Q234.68-35.6 236.63-34.48 238.58-33.35 239.43-31L239.43-31 250.83 0 241.78 0 239.58-6.75 224.73-6.75 222.43 0ZM231.63-27.65L226.88-13.7 237.43-13.7 232.98-27.65Q232.88-27.95 232.71-28.08 232.53-28.2 232.28-28.2L232.28-28.2Q232.03-28.2 231.86-28.05 231.68-27.9 231.63-27.65L231.63-27.65ZM273.53 0L253.08 0 253.08-7 259.13-7 259.13-28 253.08-28 253.08-35 273.53-35 273.53-28 267.48-28 267.48-7 273.53-7 273.53 0Z" opacity="1" transform="matrix(1,0,0,1,0,0)" fill="#ffffff" class="undefined-text-0" data-fill-palette-color="primary" id="text-0"></path></svg></g></svg></g><g transform="matrix(1,0,0,1,0,63.96392117203969)"><svg viewBox="0 0 395.52 31.9799941786108" height="31.9799941786108" width="395.52"><g transform="matrix(1,0,0,1,0,0)"><svg width="395.52" viewBox="1.25 -37.8 617.77 49.949999999999996" height="31.9799941786108" data-palette-color="#0080ff"><path d="M13.5 0.5L13.5 0.5Q10.05 0.5 7.28-0.65 4.5-1.8 2.88-4.5 1.25-7.2 1.25-11.8L1.25-11.8Q1.25-16.45 3-19.13 4.75-21.8 7.55-22.95 10.35-24.1 13.5-24.1L13.5-24.1Q16.25-24.1 18.23-23.9 20.2-23.7 20.85-23.55L20.85-23.55 24.75-19.15 20.75-13.7 15-17.1Q10.7-17.1 10.7-11.8L10.7-11.8Q10.7-9.05 12-7.78 13.3-6.5 16-6.5L16-6.5Q18.7-6.5 20.85-7.25 23-8 24.2-8.65L24.2-8.65 24.2-1.45Q22.65-0.65 20.13-0.08 17.6 0.5 13.5 0.5ZM56.49 0L47.49 0 47.49-27.4 46.49-32.4 47.49-35.4 56.49-35.4 56.49-27.3 55.99-21.75 56.49-21.5Q57.09-22.4 58.72-23.28 60.34-24.15 62.99-24.15L62.99-24.15Q67.49-24.15 69.74-21.6 71.99-19.05 71.99-14.45L71.99-14.45 71.99-7.95 73.04-3.05 71.99 0 62.99 0 62.99-13.15Q62.99-15.05 62.17-16.07 61.34-17.1 59.59-17.1L59.59-17.1 56.49-15.65 56.49 0ZM102.08 0.5L102.08 0.5Q99.93 0.5 98.11-0.13 96.28-0.75 95.18-2.3 94.08-3.85 94.08-6.6L94.08-6.6Q94.08-9.1 95.33-10.75 96.58-12.4 98.73-13.2 100.88-14 103.58-14L103.58-14Q106.18-14 107.48-13.43 108.78-12.85 109.73-12.25L109.73-12.25 110.08-12.55Q110.08-14.05 109.83-15.05 109.58-16.05 108.68-16.57 107.78-17.1 105.88-17.1L105.88-17.1Q104.03-17.1 101.96-16.78 99.88-16.45 98.16-15.98 96.43-15.5 95.58-15.05L95.58-15.05 95.58-22.55Q97.13-23.1 100.01-23.58 102.88-24.05 107.08-24.05L107.08-24.05Q111.58-24.05 114.21-22.93 116.83-21.8 117.98-19.68 119.13-17.55 119.13-14.6L119.13-14.6 119.13-7.95 120.13-2.9 119.13 0.05 110.58 0.05 110.58-2.4 110.08-2.65Q109.68-2.25 108.68-1.5 107.68-0.75 106.03-0.13 104.38 0.5 102.08 0.5ZM106.33-6.05L106.33-6.05Q107.68-6.05 108.66-6.3 109.63-6.55 110.08-6.75L110.08-6.75 110.08-7.7Q110.08-8.35 109.16-8.95 108.23-9.55 106.28-9.55L106.28-9.55Q103.58-9.55 103.58-7.65L103.58-7.65Q103.58-6.85 104.18-6.45 104.78-6.05 106.33-6.05ZM151.52 0.5L151.52 0.5Q148.12 0.5 146.07-1.5 144.02-3.5 144.02-6.55L144.02-6.55 144.02-17.45 140.37-17.45 140.37-22.2 143.52-24.65 147.07-30.85 152.97-30.85 152.97-23.6 159.97-23.6 159.97-17.1 152.97-17.1 152.97-6.4 159.97-6.45 159.97-1Q159.97-1 158.8-0.63 157.62-0.25 155.72 0.13 153.82 0.5 151.52 0.5ZM221.76 12.15L221.76 12.15Q220.51 12.15 218.91 12.08 217.31 12 216.31 11.9L216.31 11.9 210.21 8.95 212.71 2.45 220.56 5Q227.21 5 227.21-0.55L227.21-0.55 227.21-1.5 226.71-1.75Q226.01-1.05 224.48-0.33 222.96 0.4 219.71 0.4L219.71 0.4Q217.36 0.4 215.16-0.78 212.96-1.95 211.58-4.55 210.21-7.15 210.21-11.3L210.21-11.3Q210.21-15.95 211.61-18.78 213.01-21.6 215.18-22.9 217.36-24.2 219.71-24.2L219.71-24.2Q222.31-24.2 223.98-23.45 225.66-22.7 226.21-22L226.21-22 226.21-23.65 235.26-23.65 235.76-20.65 235.21-17.65 235.26-0.05Q235.26 4.25 233.58 6.95 231.91 9.65 228.88 10.9 225.86 12.15 221.76 12.15ZM223.46-6.65L223.46-6.65Q224.36-6.65 225.11-6.9 225.86-7.15 226.21-7.35L226.21-7.35 226.21-16.7Q226.01-16.85 225.46-17 224.91-17.15 223.96-17.15L223.96-17.15Q222.01-17.15 220.86-15.9 219.71-14.65 219.71-11.85L219.71-11.85Q219.71-9.1 220.81-7.88 221.91-6.65 223.46-6.65ZM267.5 12.15L258.5 12.15 258.5-15.1 257.5-20.6 259.05-23.65 266.5-23.65 266.5-21.5 267-21.25Q267-21.25 267.9-22 268.8-22.75 270.37-23.48 271.95-24.2 274.05-24.2L274.05-24.2Q278.5-24.2 281.02-21.35 283.55-18.5 283.55-12.35L283.55-12.35Q283.55-7.75 282.27-4.93 281-2.1 278.85-0.85 276.7 0.4 274.05 0.4L274.05 0.4Q270.45 0.4 268.97-0.18 267.5-0.75 267.5-0.75L267.5-0.75 267.5 12.15ZM269.8-6.45L269.8-6.45Q271.7-6.45 272.87-7.8 274.05-9.15 274.05-11.9L274.05-11.9Q274.05-14.6 273.1-15.85 272.15-17.1 270.3-17.1L270.3-17.1 267.5-16.05 267.5-7.1Q267.5-7.1 268.02-6.78 268.55-6.45 269.8-6.45ZM314.19 0.5L314.19 0.5Q310.79 0.5 308.74-1.5 306.69-3.5 306.69-6.55L306.69-6.55 306.69-17.45 303.04-17.45 303.04-22.2 306.19-24.65 309.74-30.85 315.64-30.85 315.64-23.6 322.64-23.6 322.64-17.1 315.64-17.1 315.64-6.4 322.64-6.45 322.64-1Q322.64-1 321.46-0.63 320.29-0.25 318.39 0.13 316.49 0.5 314.19 0.5ZM384.27 0L375.27 0 375.27-16.2 372.62-21.2 375.27-23.6Q375.02-24.45 374.9-25.88 374.77-27.3 374.77-28.2L374.77-28.2Q374.77-31.05 376.1-33.2 377.42-35.35 379.77-36.58 382.12-37.8 385.07-37.8L385.07-37.8Q386.47-37.8 388.05-37.68 389.62-37.55 390.77-37.25L390.77-37.25 396.12-34.2 392.27-27.25 386.52-30.75Q384.82-30.75 384.02-29.53 383.22-28.3 383.22-26.8L383.22-26.8Q383.22-25.7 383.57-24.85 383.92-24 384.27-23.6L384.27-23.6 392.27-23.6 392.27-17.6 384.27-17.6 384.27-8.1 384.77-3.05 384.27 0ZM424.41 0.5L424.41 0.5Q418.31 0.5 414.96-2.4 411.61-5.3 411.61-11.8L411.61-11.8Q411.61-18.35 414.96-21.23 418.31-24.1 424.41-24.1L424.41-24.1Q430.66-24.1 433.89-21.23 437.11-18.35 437.11-11.8L437.11-11.8Q437.11-5.3 433.89-2.4 430.66 0.5 424.41 0.5ZM424.41-6L424.41-6Q426.46-6 427.26-7.53 428.06-9.05 428.06-11.8L428.06-11.8Q428.06-14.6 427.26-16.1 426.46-17.6 424.41-17.6L424.41-17.6Q422.31-17.6 421.49-16.1 420.66-14.6 420.66-11.8L420.66-11.8Q420.66-9.05 421.49-7.53 422.31-6 424.41-6ZM468.05 0L459.15 0 459.15-15.65 458.1-20.65 459.15-23.65 465.95-23.65 466.95-22.5Q466.95-22.5 467.65-22.93 468.35-23.35 469.63-23.75 470.9-24.15 472.6-24.15L472.6-24.15Q473.6-24.15 474.6-24 475.6-23.85 476.15-23.6L476.15-23.6 479.4-20.85 476.15-14.45 469.55-17.2 468.05-16.7 468.05 0ZM536.39 0.5L536.39 0.5Q534.24 0.5 532.41-0.13 530.59-0.75 529.49-2.3 528.39-3.85 528.39-6.6L528.39-6.6Q528.39-9.1 529.64-10.75 530.89-12.4 533.04-13.2 535.19-14 537.89-14L537.89-14Q540.49-14 541.79-13.43 543.09-12.85 544.04-12.25L544.04-12.25 544.39-12.55Q544.39-14.05 544.14-15.05 543.89-16.05 542.99-16.57 542.09-17.1 540.19-17.1L540.19-17.1Q538.34-17.1 536.26-16.78 534.19-16.45 532.46-15.98 530.74-15.5 529.89-15.05L529.89-15.05 529.89-22.55Q531.44-23.1 534.31-23.58 537.19-24.05 541.39-24.05L541.39-24.05Q545.89-24.05 548.51-22.93 551.14-21.8 552.29-19.68 553.44-17.55 553.44-14.6L553.44-14.6 553.44-7.95 554.44-2.9 553.44 0.05 544.89 0.05 544.89-2.4 544.39-2.65Q543.99-2.25 542.99-1.5 541.99-0.75 540.34-0.13 538.69 0.5 536.39 0.5ZM540.64-6.05L540.64-6.05Q541.99-6.05 542.96-6.3 543.94-6.55 544.39-6.75L544.39-6.75 544.39-7.7Q544.39-8.35 543.46-8.95 542.54-9.55 540.59-9.55L540.59-9.55Q537.89-9.55 537.89-7.65L537.89-7.65Q537.89-6.85 538.49-6.45 539.09-6.05 540.64-6.05ZM586.23 0L577.23 0 577.18-27.4 576.18-32.4 577.23-35.4 586.23-35.4 586.23 0ZM619.02 0L610.02 0 609.97-27.4 608.97-32.4 610.02-35.4 619.02-35.4 619.02 0Z" opacity="1" transform="matrix(1,0,0,1,0,0)" fill="#ffffff" class="undefined-text-1" data-fill-palette-color="secondary" id="text-1"></path></svg></g></svg></g></svg></g></svg></g><g transform="matrix(1,0,0,1,131.4627544927005,0)"><svg viewBox="0 0 132.594491014599 132.594491014599" height="132.594491014599" width="132.594491014599"><g><svg></svg></g><g id="icon-0"><svg viewBox="0 0 132.594491014599 132.594491014599" height="132.594491014599" width="132.594491014599"><g><path transform="scale(1.32594,1.32594)" d="M30 100c-16.569 0-30-13.431-30-30v-40c0-16.569 13.431-30 30-30h40c16.569 0 30 13.431 30 30v40c0 16.569-13.431 30-30 30z" fill="#ffffff" fill-rule="nonzero" stroke="none" stroke-width="1" stroke-linecap="butt" stroke-linejoin="miter" stroke-miterlimit="10" stroke-dasharray="" stroke-dashoffset="0" font-family="none" font-weight="none" font-size="none" text-anchor="none" style="mix-blend-mode: normal" data-fill-palette-color="accent"></path></g><g transform="matrix(1,0,0,1,28.4103847072995,28.4103847072995)"><svg viewBox="0 0 75.77372159999999 75.77372159999999" height="75.77372159999999" width="75.77372159999999"><g><svg version="1.1" xmlns:dc="http://purl.org/dc/elements/1.1/" xmlns:inkscape="http://www.inkscape.org/namespaces/inkscape" xmlns:rdf="http://www.w3.org/1999/02/22-rdf-syntax-ns#" xmlns:cc="http://creativecommons.org/ns#" xmlns:svg="http://www.w3.org/2000/svg" xmlns:sodipodi="http://sodipodi.sourceforge.net/DTD/sodipodi-0.dtd" xmlns="http://www.w3.org/2000/svg" xmlns:xlink="http://www.w3.org/1999/xlink" x="0" y="0" viewBox="0 0 100 100" enable-background="new 0 0 100 100" xml:space="preserve" height="75.77372159999999" width="75.77372159999999" class="icon-ju-0" data-fill-palette-color="quaternary" id="ju-0"><path d="M50 0C22.386 0 0 22.386 0 50s22.386 50 50 50 50-22.386 50-50S77.614 0 50 0zM50 14.156c19.799 0 35.844 16.044 35.844 35.844 0 19.799-16.045 35.844-35.844 35.844-19.799 0-35.844-16.045-35.844-35.844C14.156 30.201 30.201 14.156 50 14.156zM50 20.125c-16.505 0-29.875 13.37-29.875 29.875S33.495 79.875 50 79.875 79.875 66.505 79.875 50 66.505 20.125 50 20.125zM50 29.75c11.178 0 20.25 9.072 20.25 20.25S61.178 70.25 50 70.25 29.75 61.178 29.75 50 38.822 29.75 50 29.75z" fill="#ffffff" data-fill-palette-color="quaternary"></path></svg></g></svg></g></svg></g></svg></g><g></g></svg></g><defs></defs></svg><rect width="395.52" height="240.7547641414788" fill="none" stroke="none" visibility="hidden"></rect></g></svg></g></svg>